<?xml version="1.0" encoding="iso-8859-1"?>
<!-- Generator: Adobe Illustrator 19.0.0, SVG Export Plug-In . SVG Version: 6.00 Build 0)  -->
<svg version="1.1" id="Layer_1" xmlns="http://www.w3.org/2000/svg" xmlns:xlink="http://www.w3.org/1999/xlink" x="0px" y="0px"
	 viewBox="0 0 512 512" style="enable-background:new 0 0 512 512;" xml:space="preserve">
<path style="fill:#E6EEF3;" d="M238.933,140.8v298.667c7.68-10.24,20.48-17.067,34.133-17.067c11.947,0,23.04,5.12,31.573,13.653
	c5.973-3.413,12.8-5.12,19.627-5.12c17.92,0,34.133,11.947,40.107,28.16c8.533-16.213,25.6-28.16,45.227-28.16
	c5.973,0,11.947,0.853,17.067,2.56V140.8H238.933z"/>
<g>
	<path style="fill:#CAD3DB;" d="M136.533,448c0-28.16,23.04-51.2,51.2-51.2c25.6,0,46.933,18.773,50.347,43.52
		c0,0,0-0.853,0.853-0.853V140.8h51.2V4.267h-230.4V499.2h25.6C85.333,471.04,108.373,448,136.533,448"/>
	<path style="fill:#CAD3DB;" d="M281.6,200.533c-5.12,0-8.533-3.413-8.533-8.533v-17.067c0-5.12,3.413-8.533,8.533-8.533
		c5.12,0,8.533,3.413,8.533,8.533V192C290.133,197.12,286.72,200.533,281.6,200.533 M281.6,251.733c-5.12,0-8.533-3.413-8.533-8.533
		v-17.067c0-5.12,3.413-8.533,8.533-8.533c5.12,0,8.533,3.413,8.533,8.533V243.2C290.133,248.32,286.72,251.733,281.6,251.733
		 M281.6,302.933c-5.12,0-8.533-3.413-8.533-8.533v-17.067c0-5.12,3.413-8.533,8.533-8.533c5.12,0,8.533,3.413,8.533,8.533V294.4
		C290.133,299.52,286.72,302.933,281.6,302.933 M281.6,354.133c-5.12,0-8.533-3.413-8.533-8.533v-17.067
		c0-5.12,3.413-8.533,8.533-8.533c5.12,0,8.533,3.413,8.533,8.533V345.6C290.133,350.72,286.72,354.133,281.6,354.133
		 M281.6,405.333c-5.12,0-8.533-3.413-8.533-8.533v-17.067c0-5.12,3.413-8.533,8.533-8.533c5.12,0,8.533,3.413,8.533,8.533V396.8
		C290.133,401.92,286.72,405.333,281.6,405.333"/>
	<path style="fill:#CAD3DB;" d="M332.8,200.533c-5.12,0-8.533-3.413-8.533-8.533v-17.067c0-5.12,3.413-8.533,8.533-8.533
		s8.533,3.413,8.533,8.533V192C341.333,197.12,337.92,200.533,332.8,200.533 M332.8,251.733c-5.12,0-8.533-3.413-8.533-8.533
		v-17.067c0-5.12,3.413-8.533,8.533-8.533s8.533,3.413,8.533,8.533V243.2C341.333,248.32,337.92,251.733,332.8,251.733
		 M332.8,302.933c-5.12,0-8.533-3.413-8.533-8.533v-17.067c0-5.12,3.413-8.533,8.533-8.533s8.533,3.413,8.533,8.533V294.4
		C341.333,299.52,337.92,302.933,332.8,302.933 M332.8,354.133c-5.12,0-8.533-3.413-8.533-8.533v-17.067
		c0-5.12,3.413-8.533,8.533-8.533s8.533,3.413,8.533,8.533V345.6C341.333,350.72,337.92,354.133,332.8,354.133 M332.8,405.333
		c-5.12,0-8.533-3.413-8.533-8.533v-17.067c0-5.12,3.413-8.533,8.533-8.533s8.533,3.413,8.533,8.533V396.8
		C341.333,401.92,337.92,405.333,332.8,405.333 M332.8,440.32c-5.12,0-8.533-3.413-8.533-8.533v-0.853
		c0-5.12,3.413-8.533,8.533-8.533s8.533,3.413,8.533,8.533v0.853C341.333,436.907,337.92,440.32,332.8,440.32"/>
	<path style="fill:#CAD3DB;" d="M384,200.533c-5.12,0-8.533-3.413-8.533-8.533v-17.067c0-5.12,3.413-8.533,8.533-8.533
		c5.12,0,8.533,3.413,8.533,8.533V192C392.533,197.12,389.12,200.533,384,200.533 M384,251.733c-5.12,0-8.533-3.413-8.533-8.533
		v-17.067c0-5.12,3.413-8.533,8.533-8.533c5.12,0,8.533,3.413,8.533,8.533V243.2C392.533,248.32,389.12,251.733,384,251.733
		 M384,302.933c-5.12,0-8.533-3.413-8.533-8.533v-17.067c0-5.12,3.413-8.533,8.533-8.533c5.12,0,8.533,3.413,8.533,8.533V294.4
		C392.533,299.52,389.12,302.933,384,302.933 M384,354.133c-5.12,0-8.533-3.413-8.533-8.533v-17.067c0-5.12,3.413-8.533,8.533-8.533
		c5.12,0,8.533,3.413,8.533,8.533V345.6C392.533,350.72,389.12,354.133,384,354.133 M384,405.333c-5.12,0-8.533-3.413-8.533-8.533
		v-17.067c0-5.12,3.413-8.533,8.533-8.533c5.12,0,8.533,3.413,8.533,8.533V396.8C392.533,401.92,389.12,405.333,384,405.333
		 M384,446.293c-5.12,0-8.533-3.413-8.533-8.533v-6.827c0-5.12,3.413-8.533,8.533-8.533c5.12,0,8.533,3.413,8.533,8.533v6.827
		C392.533,442.88,389.12,446.293,384,446.293"/>
</g>
<g>
	<path style="fill:#E6EEF3;" d="M93.867,64c-5.12,0-8.533-3.413-8.533-8.533V38.4c0-5.12,3.413-8.533,8.533-8.533
		S102.4,33.28,102.4,38.4v17.067C102.4,60.587,98.987,64,93.867,64 M93.867,115.2c-5.12,0-8.533-3.413-8.533-8.533V89.6
		c0-5.12,3.413-8.533,8.533-8.533S102.4,84.48,102.4,89.6v17.067C102.4,111.787,98.987,115.2,93.867,115.2 M93.867,166.4
		c-5.12,0-8.533-3.413-8.533-8.533V140.8c0-5.12,3.413-8.533,8.533-8.533s8.533,3.413,8.533,8.533v17.067
		C102.4,162.987,98.987,166.4,93.867,166.4 M93.867,217.6c-5.12,0-8.533-3.413-8.533-8.533V192c0-5.12,3.413-8.533,8.533-8.533
		S102.4,186.88,102.4,192v17.067C102.4,214.187,98.987,217.6,93.867,217.6 M93.867,268.8c-5.12,0-8.533-3.413-8.533-8.533V243.2
		c0-5.12,3.413-8.533,8.533-8.533s8.533,3.413,8.533,8.533v17.067C102.4,265.387,98.987,268.8,93.867,268.8 M93.867,320
		c-5.12,0-8.533-3.413-8.533-8.533V294.4c0-5.12,3.413-8.533,8.533-8.533s8.533,3.413,8.533,8.533v17.067
		C102.4,316.587,98.987,320,93.867,320 M93.867,371.2c-5.12,0-8.533-3.413-8.533-8.533V345.6c0-5.12,3.413-8.533,8.533-8.533
		s8.533,3.413,8.533,8.533v17.067C102.4,367.787,98.987,371.2,93.867,371.2 M93.867,422.4c-5.12,0-8.533-3.413-8.533-8.533V396.8
		c0-5.12,3.413-8.533,8.533-8.533s8.533,3.413,8.533,8.533v17.067C102.4,418.987,98.987,422.4,93.867,422.4 M93.867,473.6
		c-5.12,0-8.533-3.413-8.533-8.533V448c0-5.12,3.413-8.533,8.533-8.533S102.4,442.88,102.4,448v17.067
		C102.4,470.187,98.987,473.6,93.867,473.6"/>
	<path style="fill:#E6EEF3;" d="M145.067,64c-5.12,0-8.533-3.413-8.533-8.533V38.4c0-5.12,3.413-8.533,8.533-8.533
		c5.12,0,8.533,3.413,8.533,8.533v17.067C153.6,60.587,150.187,64,145.067,64 M145.067,115.2c-5.12,0-8.533-3.413-8.533-8.533V89.6
		c0-5.12,3.413-8.533,8.533-8.533c5.12,0,8.533,3.413,8.533,8.533v17.067C153.6,111.787,150.187,115.2,145.067,115.2 M145.067,166.4
		c-5.12,0-8.533-3.413-8.533-8.533V140.8c0-5.12,3.413-8.533,8.533-8.533c5.12,0,8.533,3.413,8.533,8.533v17.067
		C153.6,162.987,150.187,166.4,145.067,166.4 M145.067,217.6c-5.12,0-8.533-3.413-8.533-8.533V192c0-5.12,3.413-8.533,8.533-8.533
		c5.12,0,8.533,3.413,8.533,8.533v17.067C153.6,214.187,150.187,217.6,145.067,217.6 M145.067,268.8
		c-5.12,0-8.533-3.413-8.533-8.533V243.2c0-5.12,3.413-8.533,8.533-8.533c5.12,0,8.533,3.413,8.533,8.533v17.067
		C153.6,265.387,150.187,268.8,145.067,268.8 M145.067,320c-5.12,0-8.533-3.413-8.533-8.533V294.4c0-5.12,3.413-8.533,8.533-8.533
		c5.12,0,8.533,3.413,8.533,8.533v17.067C153.6,316.587,150.187,320,145.067,320 M145.067,371.2c-5.12,0-8.533-3.413-8.533-8.533
		V345.6c0-5.12,3.413-8.533,8.533-8.533c5.12,0,8.533,3.413,8.533,8.533v17.067C153.6,367.787,150.187,371.2,145.067,371.2
		 M145.067,422.4c-5.12,0-8.533-3.413-8.533-8.533V396.8c0-5.12,3.413-8.533,8.533-8.533c5.12,0,8.533,3.413,8.533,8.533v17.067
		C153.6,418.987,150.187,422.4,145.067,422.4"/>
	<path style="fill:#E6EEF3;" d="M196.267,64c-5.12,0-8.533-3.413-8.533-8.533V38.4c0-5.12,3.413-8.533,8.533-8.533
		c5.12,0,8.533,3.413,8.533,8.533v17.067C204.8,60.587,201.387,64,196.267,64 M196.267,115.2c-5.12,0-8.533-3.413-8.533-8.533V89.6
		c0-5.12,3.413-8.533,8.533-8.533c5.12,0,8.533,3.413,8.533,8.533v17.067C204.8,111.787,201.387,115.2,196.267,115.2 M196.267,166.4
		c-5.12,0-8.533-3.413-8.533-8.533V140.8c0-5.12,3.413-8.533,8.533-8.533c5.12,0,8.533,3.413,8.533,8.533v17.067
		C204.8,162.987,201.387,166.4,196.267,166.4 M196.267,217.6c-5.12,0-8.533-3.413-8.533-8.533V192c0-5.12,3.413-8.533,8.533-8.533
		c5.12,0,8.533,3.413,8.533,8.533v17.067C204.8,214.187,201.387,217.6,196.267,217.6 M196.267,268.8
		c-5.12,0-8.533-3.413-8.533-8.533V243.2c0-5.12,3.413-8.533,8.533-8.533c5.12,0,8.533,3.413,8.533,8.533v17.067
		C204.8,265.387,201.387,268.8,196.267,268.8 M196.267,320c-5.12,0-8.533-3.413-8.533-8.533V294.4c0-5.12,3.413-8.533,8.533-8.533
		c5.12,0,8.533,3.413,8.533,8.533v17.067C204.8,316.587,201.387,320,196.267,320 M196.267,371.2c-5.12,0-8.533-3.413-8.533-8.533
		V345.6c0-5.12,3.413-8.533,8.533-8.533c5.12,0,8.533,3.413,8.533,8.533v17.067C204.8,367.787,201.387,371.2,196.267,371.2"/>
	<path style="fill:#E6EEF3;" d="M247.467,64c-5.12,0-8.533-3.413-8.533-8.533V38.4c0-5.12,3.413-8.533,8.533-8.533
		c5.12,0,8.533,3.413,8.533,8.533v17.067C256,60.587,252.587,64,247.467,64 M247.467,115.2c-5.12,0-8.533-3.413-8.533-8.533V89.6
		c0-5.12,3.413-8.533,8.533-8.533c5.12,0,8.533,3.413,8.533,8.533v17.067C256,111.787,252.587,115.2,247.467,115.2"/>
</g>
<path style="fill:#24AE5F;" d="M458.24,499.2c1.707-5.12,2.56-11.093,2.56-17.067c0-28.16-23.04-51.2-51.2-51.2
	c-19.627,0-36.693,11.093-45.227,28.16c-5.973-16.213-22.187-28.16-40.107-28.16c-23.893,0-42.667,18.773-42.667,42.667
	c0,9.387,3.413,18.773,8.533,25.6H358.4H458.24z"/>
<path style="fill:#42C775;" d="M247.467,499.2h42.667c-5.12-6.827-8.533-16.213-8.533-25.6c0-16.213,9.387-29.867,23.04-37.547
	c-7.68-8.533-18.773-13.653-31.573-13.653c-14.507,0-27.307,6.827-34.987,17.92c-3.413-24.747-24.747-43.52-50.347-43.52
	c-28.16,0-51.2,23.04-51.2,51.2c-28.16,0-51.2,23.04-51.2,51.2h102.4H247.467z"/>
<path style="fill:#E6EEF3;" d="M503.467,507.733H8.533C3.413,507.733,0,504.32,0,499.2c0-5.12,3.413-8.533,8.533-8.533h494.933
	c5.12,0,8.533,3.413,8.533,8.533C512,504.32,508.587,507.733,503.467,507.733"/>
<g>
</g>
<g>
</g>
<g>
</g>
<g>
</g>
<g>
</g>
<g>
</g>
<g>
</g>
<g>
</g>
<g>
</g>
<g>
</g>
<g>
</g>
<g>
</g>
<g>
</g>
<g>
</g>
<g>
</g>
</svg>
