<?xml version="1.0" encoding="iso-8859-1"?>
<!-- Generator: Adobe Illustrator 19.0.0, SVG Export Plug-In . SVG Version: 6.00 Build 0)  -->
<svg version="1.1" id="Layer_1" xmlns="http://www.w3.org/2000/svg" xmlns:xlink="http://www.w3.org/1999/xlink" x="0px" y="0px"
	 viewBox="0 0 512 512" style="enable-background:new 0 0 512 512;" xml:space="preserve">
<path style="fill:#AFB9D2;" d="M75.034,0h-8.828c-2.438,0-4.414,1.976-4.414,4.414v17.655c0,2.438,1.976,4.414,4.414,4.414h8.828
	c2.438,0,4.414-1.976,4.414-4.414V4.414C79.448,1.976,77.472,0,75.034,0z"/>
<g>
	<path style="fill:#C7CFE2;" d="M92.69,17.655H30.897c-2.438,0-4.414,1.976-4.414,4.414v17.655c0,2.438,1.976,4.414,4.414,4.414
		H92.69c2.438,0,4.414-1.976,4.414-4.414V22.069C97.103,19.631,95.127,17.655,92.69,17.655z"/>
	<path style="fill:#C7CFE2;" d="M145.655,17.655h-26.483c-2.438,0-4.414,1.976-4.414,4.414v17.655c0,2.438,1.976,4.414,4.414,4.414
		h26.483c2.438,0,4.414-1.976,4.414-4.414V22.069C150.069,19.631,148.093,17.655,145.655,17.655z"/>
</g>
<rect x="17.655" y="44.14" style="fill:#FFD782;" width="158.9" height="459.03"/>
<rect x="176.55" y="194.21" style="fill:#707487;" width="52.966" height="308.97"/>
<rect x="176.55" y="194.21" style="fill:#5B5D6E;" width="26.483" height="308.97"/>
<rect x="229.52" y="194.21" style="fill:#707487;" width="52.966" height="308.97"/>
<rect x="229.52" y="194.21" style="fill:#5B5D6E;" width="26.483" height="308.97"/>
<rect x="282.48" y="194.21" style="fill:#707487;" width="52.966" height="308.97"/>
<rect x="282.48" y="194.21" style="fill:#5B5D6E;" width="26.483" height="308.97"/>
<rect x="335.45" y="194.21" style="fill:#707487;" width="52.966" height="308.97"/>
<rect x="335.45" y="194.21" style="fill:#5B5D6E;" width="26.483" height="308.97"/>
<rect x="388.41" y="194.21" style="fill:#707487;" width="52.966" height="308.97"/>
<rect x="388.41" y="194.21" style="fill:#5B5D6E;" width="26.483" height="308.97"/>
<rect x="441.38" y="194.21" style="fill:#707487;" width="52.966" height="308.97"/>
<g>
	<rect x="441.38" y="194.21" style="fill:#5B5D6E;" width="26.483" height="308.97"/>
	<path style="fill:#5B5D6E;" d="M61.793,450.207L61.793,450.207c4.875,0,8.828-3.953,8.828-8.828v-17.655
		c0-4.875-3.953-8.828-8.828-8.828l0,0c-4.875,0-8.828,3.953-8.828,8.828v17.655C52.966,446.254,56.918,450.207,61.793,450.207z"/>
</g>
<g>
	<rect x="17.655" y="158.9" style="fill:#FFAF5F;" width="158.9" height="17.655"/>
	<rect x="17.655" y="52.966" style="fill:#FFAF5F;" width="158.9" height="17.655"/>
</g>
<path style="fill:#AFB9D2;" d="M180.966,52.966H13.241c-2.438,0-4.414-1.976-4.414-4.414v-8.828c0-2.438,1.976-4.414,4.414-4.414
	h167.724c2.438,0,4.414,1.976,4.414,4.414v8.828C185.379,50.989,183.403,52.966,180.966,52.966z"/>
<g>
	<rect x="17.655" y="370.76" style="fill:#FFAF5F;" width="158.9" height="17.655"/>
	<rect x="17.655" y="264.83" style="fill:#FFAF5F;" width="158.9" height="17.655"/>
	<rect x="17.655" y="476.69" style="fill:#FFAF5F;" width="158.9" height="17.655"/>
</g>
<path style="fill:#8F96AC;" d="M498.759,194.207H176.552v-17.655h326.621v13.241C503.172,192.231,501.196,194.207,498.759,194.207z"
	/>
<g>
	<path style="fill:#AFB9D2;" d="M507.586,176.552H176.552v-17.655h331.034c2.438,0,4.414,1.976,4.414,4.414v8.828
		C512,174.575,510.024,176.552,507.586,176.552z"/>
	<rect x="88.28" y="414.9" style="fill:#AFB9D2;" width="300.14" height="88.28"/>
</g>
<g>
	<path style="fill:#8F96AC;" d="M392.828,423.724H83.862c-2.438,0-4.414-1.976-4.414-4.414v-8.828c0-2.438,1.976-4.414,4.414-4.414
		h308.966c2.438,0,4.414,1.976,4.414,4.414v8.828C397.241,421.748,395.265,423.724,392.828,423.724z"/>
	<path style="fill:#8F96AC;" d="M507.586,512H4.414C1.976,512,0,510.024,0,507.586v-8.828c0-2.438,1.976-4.414,4.414-4.414h503.172
		c2.438,0,4.414,1.976,4.414,4.414v8.828C512,510.024,510.024,512,507.586,512z"/>
</g>
<path style="fill:#B4E1FA;" d="M335.448,472.276v-26.483c0-2.438,1.976-4.414,4.414-4.414h8.828c2.438,0,4.414,1.976,4.414,4.414
	v26.483c0,2.438-1.976,4.414-4.414,4.414h-8.828C337.425,476.69,335.448,474.713,335.448,472.276z"/>
<path style="fill:#A0D2F0;" d="M348.69,441.379h-8.828c-2.438,0-4.414,1.976-4.414,4.414v13.241h17.655v-13.241
	C353.103,443.356,351.127,441.379,348.69,441.379z"/>
<path style="fill:#B4E1FA;" d="M300.138,472.276v-26.483c0-2.438,1.976-4.414,4.414-4.414h8.828c2.438,0,4.414,1.976,4.414,4.414
	v26.483c0,2.438-1.976,4.414-4.414,4.414h-8.828C302.114,476.69,300.138,474.713,300.138,472.276z"/>
<path style="fill:#A0D2F0;" d="M313.379,441.379h-8.828c-2.438,0-4.414,1.976-4.414,4.414v13.241h17.655v-13.241
	C317.793,443.356,315.817,441.379,313.379,441.379z"/>
<path style="fill:#B4E1FA;" d="M247.172,472.276v-26.483c0-2.438,1.976-4.414,4.414-4.414h8.828c2.438,0,4.414,1.976,4.414,4.414
	v26.483c0,2.438-1.976,4.414-4.414,4.414h-8.828C249.149,476.69,247.172,474.713,247.172,472.276z"/>
<path style="fill:#A0D2F0;" d="M260.414,441.379h-8.828c-2.438,0-4.414,1.976-4.414,4.414v13.241h17.655v-13.241
	C264.828,443.356,262.851,441.379,260.414,441.379z"/>
<path style="fill:#B4E1FA;" d="M211.862,472.276v-26.483c0-2.438,1.976-4.414,4.414-4.414h8.828c2.438,0,4.414,1.976,4.414,4.414
	v26.483c0,2.438-1.976,4.414-4.414,4.414h-8.828C213.838,476.69,211.862,474.713,211.862,472.276z"/>
<path style="fill:#A0D2F0;" d="M225.103,441.379h-8.828c-2.438,0-4.414,1.976-4.414,4.414v13.241h17.655v-13.241
	C229.517,443.356,227.541,441.379,225.103,441.379z"/>
<path style="fill:#B4E1FA;" d="M158.897,472.276v-26.483c0-2.438,1.976-4.414,4.414-4.414h8.828c2.438,0,4.414,1.976,4.414,4.414
	v26.483c0,2.438-1.976,4.414-4.414,4.414h-8.828C160.873,476.69,158.897,474.713,158.897,472.276z"/>
<path style="fill:#A0D2F0;" d="M172.138,441.379h-8.828c-2.438,0-4.414,1.976-4.414,4.414v13.241h17.655v-13.241
	C176.552,443.356,174.575,441.379,172.138,441.379z"/>
<path style="fill:#B4E1FA;" d="M123.586,472.276v-26.483c0-2.438,1.976-4.414,4.414-4.414h8.828c2.438,0,4.414,1.976,4.414,4.414
	v26.483c0,2.438-1.976,4.414-4.414,4.414H128C125.562,476.69,123.586,474.713,123.586,472.276z"/>
<path style="fill:#A0D2F0;" d="M136.828,441.379H128c-2.438,0-4.414,1.976-4.414,4.414v13.241h17.655v-13.241
	C141.241,443.356,139.265,441.379,136.828,441.379z"/>
<path style="fill:#B4E1FA;" d="M52.966,445.793V419.31c0-2.438,1.976-4.414,4.414-4.414h8.828c2.438,0,4.414,1.976,4.414,4.414
	v26.483c0,2.438-1.976,4.414-4.414,4.414H57.38C54.942,450.207,52.966,448.231,52.966,445.793z"/>
<path style="fill:#A0D2F0;" d="M66.207,414.897h-8.828c-2.438,0-4.414,1.976-4.414,4.414v13.241H70.62V419.31
	C70.621,416.873,68.644,414.897,66.207,414.897z"/>
<path style="fill:#B4E1FA;" d="M88.276,233.931v-26.483c0-2.438,1.976-4.414,4.414-4.414h8.828c2.438,0,4.414,1.976,4.414,4.414
	v26.483c0,2.438-1.976,4.414-4.414,4.414H92.69C90.252,238.345,88.276,236.369,88.276,233.931z"/>
<path style="fill:#A0D2F0;" d="M101.517,203.034H92.69c-2.438,0-4.414,1.976-4.414,4.414v13.241h17.655v-13.241
	C105.931,205.011,103.955,203.034,101.517,203.034z"/>
<path style="fill:#B4E1FA;" d="M52.966,233.931v-26.483c0-2.438,1.976-4.414,4.414-4.414h8.828c2.438,0,4.414,1.976,4.414,4.414
	v26.483c0,2.438-1.976,4.414-4.414,4.414H57.38C54.942,238.345,52.966,236.369,52.966,233.931z"/>
<path style="fill:#A0D2F0;" d="M66.207,203.034h-8.828c-2.438,0-4.414,1.976-4.414,4.414v13.241H70.62v-13.241
	C70.621,205.011,68.644,203.034,66.207,203.034z"/>
<path style="fill:#B4E1FA;" d="M123.586,233.931v-26.483c0-2.438,1.976-4.414,4.414-4.414h8.828c2.438,0,4.414,1.976,4.414,4.414
	v26.483c0,2.438-1.976,4.414-4.414,4.414H128C125.562,238.345,123.586,236.369,123.586,233.931z"/>
<path style="fill:#A0D2F0;" d="M136.828,203.034H128c-2.438,0-4.414,1.976-4.414,4.414v13.241h17.655v-13.241
	C141.241,205.011,139.265,203.034,136.828,203.034z"/>
<path style="fill:#B4E1FA;" d="M88.276,339.862v-26.483c0-2.438,1.976-4.414,4.414-4.414h8.828c2.438,0,4.414,1.976,4.414,4.414
	v26.483c0,2.438-1.976,4.414-4.414,4.414H92.69C90.252,344.276,88.276,342.3,88.276,339.862z"/>
<path style="fill:#A0D2F0;" d="M101.517,308.966H92.69c-2.438,0-4.414,1.976-4.414,4.414v13.241h17.655V313.38
	C105.931,310.942,103.955,308.966,101.517,308.966z"/>
<path style="fill:#B4E1FA;" d="M52.966,339.862v-26.483c0-2.438,1.976-4.414,4.414-4.414h8.828c2.438,0,4.414,1.976,4.414,4.414
	v26.483c0,2.438-1.976,4.414-4.414,4.414H57.38C54.942,344.276,52.966,342.3,52.966,339.862z"/>
<path style="fill:#A0D2F0;" d="M66.207,308.966h-8.828c-2.438,0-4.414,1.976-4.414,4.414v13.241H70.62V313.38
	C70.621,310.942,68.644,308.966,66.207,308.966z"/>
<path style="fill:#B4E1FA;" d="M123.586,339.862v-26.483c0-2.438,1.976-4.414,4.414-4.414h8.828c2.438,0,4.414,1.976,4.414,4.414
	v26.483c0,2.438-1.976,4.414-4.414,4.414H128C125.562,344.276,123.586,342.3,123.586,339.862z"/>
<path style="fill:#A0D2F0;" d="M136.828,308.966H128c-2.438,0-4.414,1.976-4.414,4.414v13.241h17.655V313.38
	C141.241,310.942,139.265,308.966,136.828,308.966z"/>
<path style="fill:#B4E1FA;" d="M88.276,128v-26.483c0-2.438,1.976-4.414,4.414-4.414h8.828c2.438,0,4.414,1.976,4.414,4.414V128
	c0,2.438-1.976,4.414-4.414,4.414H92.69C90.252,132.414,88.276,130.438,88.276,128z"/>
<path style="fill:#A0D2F0;" d="M101.517,97.103H92.69c-2.438,0-4.414,1.976-4.414,4.414v13.241h17.655v-13.241
	C105.931,99.08,103.955,97.103,101.517,97.103z"/>
<path style="fill:#B4E1FA;" d="M52.966,128v-26.483c0-2.438,1.976-4.414,4.414-4.414h8.828c2.438,0,4.414,1.976,4.414,4.414V128
	c0,2.438-1.976,4.414-4.414,4.414H57.38C54.942,132.414,52.966,130.438,52.966,128z"/>
<path style="fill:#A0D2F0;" d="M66.207,97.103h-8.828c-2.438,0-4.414,1.976-4.414,4.414v13.241H70.62v-13.241
	C70.621,99.08,68.644,97.103,66.207,97.103z"/>
<path style="fill:#B4E1FA;" d="M123.586,128v-26.483c0-2.438,1.976-4.414,4.414-4.414h8.828c2.438,0,4.414,1.976,4.414,4.414V128
	c0,2.438-1.976,4.414-4.414,4.414H128C125.562,132.414,123.586,130.438,123.586,128z"/>
<path style="fill:#A0D2F0;" d="M136.828,97.103H128c-2.438,0-4.414,1.976-4.414,4.414v13.241h17.655v-13.241
	C141.241,99.08,139.265,97.103,136.828,97.103z"/>
<g>
</g>
<g>
</g>
<g>
</g>
<g>
</g>
<g>
</g>
<g>
</g>
<g>
</g>
<g>
</g>
<g>
</g>
<g>
</g>
<g>
</g>
<g>
</g>
<g>
</g>
<g>
</g>
<g>
</g>
</svg>
